<?xml version="1.0" standalone="no"?>
<svg xmlns="http://www.w3.org/2000/svg" width="768" height="768" viewBox="0 0 600 600" xmlns:xlink="http://www.w3.org/1999/xlink">
<title>Kopimism symbol - Ctrl-C Ctrl-V in yin-yang</title>
<circle fill="#1a1a1a" cx="300" cy="300" r="297"/>
<path fill="#e6e6e6" d="M300,3
A148.5,148.5 0 0,1 300,300
A148.5,148.5 0 0,0 300,597
A297,297 0 0,0 300,3Z"/>
<circle cx="300" cy="300" r="297" fill="none" stroke="#000000" stroke-width="2.9623"/>
<defs><g id="Ctrl-"><path id="C" d="M229.245,127.006
C234.199,127.006,240.316,128.235,245.725,131.936V139.323
C238.435,132.532,231.252,132.767,229.662,132.767
C217.281,132.767,211.343,140.925,211.343,153.896
C211.343,166.844,217.253,174.989,229.662,174.989
C231.252,174.989,238.688,174.989,245.725,168.433V175.752
C238.921,180.373,232.541,180.75,229.245,180.75
C213.399,180.75,203.953,169.998,203.953,153.896
C203.953,137.737,213.409,127.006,229.245,127.006"/>
<path d="M269.248,179.743C258.839,179.743,256.237,175.923,256.237,166.94
V145.846H251.553V140.885H256.237V129.851H262.656V140.885H275.805V145.846
H262.656V166.94C262.656,172.909,263.974,174.401,269.248,174.401H275.805
V179.743Z
M290.411,146.921C292.936,142.484,296.904,139.95,303.49,139.95
C304.358,139.95,305.85,140.142,306.717,140.297L306.752,146.853
C305.878,146.346,304.193,145.639,301.617,145.639
C293.952,145.639,290.411,151.084,290.411,159.274V179.743H283.993V140.885
H290.411Z
M313.517,125.76V179.743H319.901V125.76Z
M329.997,157.435V163.125H348.697V157.435Z"/></g></defs>
<g fill="#ffffff"><use xlink:href="#Ctrl-"/>
<use x="152.238" xlink:href="#C"/></g>
<use x="0.954" y="289.33" xlink:href="#Ctrl-"/>
<path d="M349.547,417.275H356.868L373.278,460.882L389.723,417.275
H397.009L377.268,469.073H369.323Z"/></svg>
